# xmcd CD database file
#
# Track frame offsets:
#	150
#	25669
#	50500
#	74707
#	91924
#	117091
#	137121
#	150386
#	160962
#	172318
#	182360
#	191703
#
# Disc length: 2692 seconds
#
# Revision: 0
# Processed by: cddbd v1.5.2PL0 Copyright (c) Steve Scherf et al.
# Submitted via: CDex 1.70beta2
#
DISCID=a10a820c
DTITLE=Misc - Latin Rhythms - 16th anniversary Salsa Fusion
DYEAR=2007
DGENRE=Salsa
TTITLE0=Chu Chu Chu
TTITLE1=Loco de amarte
TTITLE2=Mujer
TTITLE3=Pa Goza
TTITLE4=Portugal
TTITLE5=Cumbia Dominique
TTITLE6=Cherry pink
TTITLE7=Oye como va
TTITLE8=Sway
TTITLE9=Mambo Italiano
TTITLE10=Mambo no 8
TTITLE11=Papa loves mambo
EXTD=YEAR: 2007
EXTT0=
EXTT1=
EXTT2=
EXTT3=
EXTT4=
EXTT5=
EXTT6=
EXTT7=
EXTT8=
EXTT9=
EXTT10=
EXTT11=
PLAYORDER=
